<?xml version="1.0" encoding="UTF-8"?><svg id="b" xmlns="http://www.w3.org/2000/svg" viewBox="0 0 241.55 150.5"><g id="c"><path d="M91.3.25l58.28.08c6.47,0,11.72,5.26,11.72,11.73h0c0,5.3-2.11,10.39-5.86,14.14l-3.5,3.5c-6.03,6.03-6.46,15.66-1.01,22.21h0c8,9.6,22.73,9.6,30.73,0h0c5.46-6.55,5.02-16.18-1.01-22.21l-3.5-3.5c-3.75-3.75-5.86-8.84-5.86-14.14h0c0-6.47,5.24-11.72,11.72-11.73l58.28-.08c0,82.29-67.71,150-150,150-26.33,0-52.2-6.93-75-20.1l29.17-50.52c3.24-5.6,1.32-12.77-4.29-16h0c-4.59-2.65-10.05-3.37-15.18-2l-4.78,1.28c-8.23,2.21-16.79-2.23-19.73-10.23h0c-4.31-11.72,3.06-24.48,15.36-26.61h0c8.4-1.45,16.52,3.74,18.73,11.98l1.28,4.78c1.37,5.12,4.72,9.49,9.32,12.14h0c5.6,3.24,12.77,1.32,16-4.29L91.3.25Z" style="fill:#86A8E7;"/></g></svg>